<svg width="1440" height="900" viewBox="0 0 1440 900" fill="none" xmlns="http://www.w3.org/2000/svg">
  <defs>
    <linearGradient id="bg" x1="0" y1="0" x2="1440" y2="900" gradientUnits="userSpaceOnUse">
      <stop stop-color="#0C2532"/>
      <stop offset="1" stop-color="#05121A"/>
    </linearGradient>
    <linearGradient id="panel" x1="0" y1="0" x2="0" y2="760" gradientUnits="userSpaceOnUse">
      <stop stop-color="#0F3041" stop-opacity="0.9"/>
      <stop offset="1" stop-color="#0A1F2A" stop-opacity="0.9"/>
    </linearGradient>
  </defs>

  <rect width="1440" height="900" fill="url(#bg)"/>
  <rect x="80" y="70" width="1280" height="760" rx="20" fill="#0D1D28" stroke="#2D5568"/>

  <rect x="80" y="70" width="1280" height="48" rx="20" fill="#16384A"/>
  <circle cx="110" cy="94" r="7" fill="#FF5F56"/>
  <circle cx="132" cy="94" r="7" fill="#FFBD2E"/>
  <circle cx="154" cy="94" r="7" fill="#27C93F"/>
  <text x="715" y="100" text-anchor="middle" fill="#D8EAF2" font-family="SF Pro Text, Helvetica, Arial" font-size="15">CoPaRe</text>

  <rect x="96" y="132" width="450" height="682" rx="14" fill="url(#panel)" stroke="#24495B"/>
  <text x="126" y="175" fill="#EAF5FA" font-family="SF Pro Display, Helvetica, Arial" font-size="34" font-weight="700">CoPaRe</text>
  <text x="126" y="205" fill="#A6C4D1" font-family="SF Pro Text, Helvetica, Arial" font-size="14">248 items   Monitoring on   3 sensitive blocked</text>

  <rect x="126" y="228" width="390" height="42" rx="11" fill="#0B1A24" stroke="#2B4F61"/>
  <text x="144" y="254" fill="#89AABD" font-family="SF Pro Text, Helvetica, Arial" font-size="13">Search text, URLs, files</text>

  <rect x="126" y="286" width="95" height="30" rx="8" fill="#1E5169"/>
  <rect x="228" y="286" width="95" height="30" rx="8" fill="#113142"/>
  <rect x="330" y="286" width="95" height="30" rx="8" fill="#113142"/>
  <rect x="432" y="286" width="84" height="30" rx="8" fill="#113142"/>
  <text x="173" y="306" fill="#DBF1FF" text-anchor="middle" font-family="SF Pro Text, Helvetica, Arial" font-size="12">All</text>
  <text x="275" y="306" fill="#8FB2C4" text-anchor="middle" font-family="SF Pro Text, Helvetica, Arial" font-size="12">Pinned</text>
  <text x="377" y="306" fill="#8FB2C4" text-anchor="middle" font-family="SF Pro Text, Helvetica, Arial" font-size="12">Text</text>
  <text x="474" y="306" fill="#8FB2C4" text-anchor="middle" font-family="SF Pro Text, Helvetica, Arial" font-size="12">Files</text>

  <rect x="126" y="332" width="390" height="96" rx="12" fill="#12374A" stroke="#2D627B"/>
  <text x="146" y="360" fill="#E6F3FA" font-family="SF Pro Text, Helvetica, Arial" font-size="14">https://portal.company.internal/reset</text>
  <text x="146" y="384" fill="#9EC0D0" font-family="SF Pro Text, Helvetica, Arial" font-size="12">10:36   58 B</text>
  <text x="146" y="407" fill="#FFD58F" font-family="SF Pro Text, Helvetica, Arial" font-size="12">Pinned</text>

  <rect x="126" y="438" width="390" height="84" rx="12" fill="#0E2633" stroke="#24495B"/>
  <text x="146" y="466" fill="#DCECF5" font-family="SF Pro Text, Helvetica, Arial" font-size="14">Deploy key for staging environment...</text>
  <text x="146" y="490" fill="#8EAFBF" font-family="SF Pro Text, Helvetica, Arial" font-size="12">10:31   132 B</text>

  <rect x="126" y="532" width="390" height="84" rx="12" fill="#0E2633" stroke="#24495B"/>
  <text x="146" y="560" fill="#DCECF5" font-family="SF Pro Text, Helvetica, Arial" font-size="14">3 files</text>
  <text x="146" y="584" fill="#8EAFBF" font-family="SF Pro Text, Helvetica, Arial" font-size="12">10:22   418 B</text>

  <rect x="560" y="132" width="784" height="682" rx="14" fill="#101F29" stroke="#24495B"/>
  <text x="596" y="179" fill="#E6F3FA" font-family="SF Pro Display, Helvetica, Arial" font-size="28" font-weight="600">Text</text>
  <text x="1278" y="179" fill="#8EAFBF" text-anchor="end" font-family="SF Pro Text, Helvetica, Arial" font-size="13">27 Feb 2026 10:36   58 bytes</text>

  <rect x="596" y="206" width="712" height="500" rx="14" fill="#0A1A24" stroke="#24495B"/>
  <text x="626" y="252" fill="#CBE2EE" font-family="Menlo, Monaco, monospace" font-size="16">https://portal.company.internal/reset</text>
  <text x="626" y="283" fill="#CBE2EE" font-family="Menlo, Monaco, monospace" font-size="16">?token=***</text>
  <text x="626" y="314" fill="#CBE2EE" font-family="Menlo, Monaco, monospace" font-size="16">(redacted in preview)</text>

  <rect x="596" y="724" width="130" height="42" rx="10" fill="#2B6A87"/>
  <text x="661" y="750" text-anchor="middle" fill="#F3FBFF" font-family="SF Pro Text, Helvetica, Arial" font-size="13">Copy Again</text>

  <rect x="738" y="724" width="92" height="42" rx="10" fill="#113142" stroke="#2B4F61"/>
  <text x="784" y="750" text-anchor="middle" fill="#D6E8F2" font-family="SF Pro Text, Helvetica, Arial" font-size="13">Unpin</text>

  <rect x="1210" y="724" width="98" height="42" rx="10" fill="#4A1C21" stroke="#8A373F"/>
  <text x="1259" y="750" text-anchor="middle" fill="#FFD8DC" font-family="SF Pro Text, Helvetica, Arial" font-size="13">Delete</text>
</svg>
